<?xml version="1.0" encoding="utf-8"?>
<!-- Generator: Adobe Illustrator 21.0.2, SVG Export Plug-In . SVG Version: 6.00 Build 0)  -->
<svg version="1.1" id="圖層_1" xmlns="http://www.w3.org/2000/svg" xmlns:xlink="http://www.w3.org/1999/xlink" x="0px" y="0px"
	 viewBox="0 0 30.9 63.8" style="enable-background:new 0 0 30.9 63.8;" xml:space="preserve">
<style type="text/css">
	.st0{display:none;}
	.st1{display:inline;}
	.st2{fill:#FFFFFF;}
</style>
<g id="圖層_1_1_">
</g>
<g id="圖層_2" class="st0">
	<path class="st1" d="M40.9,78.8c-20.6,0-37.1-16.6-37.1-37.2c0-20.7,17.2-37.4,37.9-37C61.8,5,78.4,21.7,77.9,42.5
		C77.5,62.6,61,78.9,40.9,78.8z"/>
</g>
<g id="圖層_3">
	<path class="st2" d="M30.6,32.1c0,9.2,0,18.4,0,27.5c0,2.4-1.9,4-4,4c-6.5,0-13.1,0-19.6,0c-1.1,0-2.2,0-3.3,0
		c-1.8-0.1-3.2-1.5-3.5-3.2c0-0.3,0-0.5,0-0.8c0-18.4,0-36.9,0-55.3c0-0.7,0.1-1.4,0.5-2c0.8-1.3,2-1.9,3.5-2c6.1,0,12.1,0,18.2,0
		c1.4,0,2.9,0,4.3,0c1.5,0,2.7,0.7,3.5,2c0.4,0.6,0.5,1.3,0.5,2c0,8.8,0,17.6,0,26.4C30.6,31.2,30.6,31.6,30.6,32.1z M29.3,31.4
		c0-7.9,0-15.8,0-23.6c0-0.1,0-0.2,0-0.3c0-0.2-0.1-0.4-0.3-0.5s-0.4-0.1-0.6-0.1c-8.6,0-17.2,0-25.8,0c-0.1,0-0.3,0-0.4,0
		S2,6.9,1.9,7C1.6,7.2,1.5,7.5,1.5,7.8c0,15.8,0,31.6,0,47.4c0,0.1,0,0.2,0,0.3c0,0.3,0.2,0.5,0.5,0.6c0.1,0,0.3,0,0.4,0
		c8.7,0,17.3,0,26,0c0.1,0,0.2,0,0.3,0c0.4,0,0.6-0.3,0.6-0.7c0-0.1,0-0.2,0-0.3C29.3,47.1,29.3,39.2,29.3,31.4z M17.9,59.9
		c0-1.4-1.1-2.5-2.5-2.5s-2.5,1.1-2.5,2.4c0,1.4,1.1,2.5,2.5,2.5S17.9,61.2,17.9,59.9z M15.4,3.2c-0.7,0-1.3,0-2,0
		c-0.2,0-0.4,0-0.4,0.3c0,0.2,0.2,0.2,0.4,0.2c1.3,0,2.6,0,3.9,0c0.2,0,0.3,0,0.3-0.2s-0.2-0.2-0.3-0.2C16.7,3.2,16,3.2,15.4,3.2z
		 M10.7,2.8c-0.4,0-0.7,0.3-0.7,0.7c0,0.4,0.3,0.7,0.7,0.7s0.7-0.3,0.7-0.7S11,2.8,10.7,2.8z"/>
</g>
</svg>
